<svg width="125" height="16" viewBox="0 0 125 16" fill="none" xmlns="http://www.w3.org/2000/svg">
<path d="M69.1427 6.26868L64.8912 9.79065L66.1419 15.5146L62.011 12.0566L57.614 15.3307L59.3128 9.67065L55.3467 5.9707L60.5271 5.93066L62.4738 0.369751L63.977 6.00574L69.1427 6.26868Z" fill="#FFC600"/>
<path d="M41.6917 6.26868L37.4403 9.79065L38.6911 15.5146L34.5601 12.0566L30.1631 15.3307L31.8618 9.67065L27.8958 5.9707L33.0762 5.93066L35.0229 0.369751L36.5261 6.00574L41.6917 6.26868Z" fill="#FFC600"/>
<path d="M14.2428 6.26868L9.9913 9.79065L11.242 15.5146L7.1111 12.0566L2.71407 15.3307L4.41286 9.67065L0.446777 5.9707L5.62724 5.93066L7.5739 0.369751L9.07709 6.00574L14.2428 6.26868Z" fill="#FFC600"/>
<path d="M96.5921 6.26868L92.3407 9.79065L93.5914 15.5146L89.4605 12.0566L85.0635 15.3307L86.7623 9.67065L82.7961 5.9707L87.9766 5.93066L89.9233 0.369751L91.4265 6.00574L96.5921 6.26868Z" fill="#FFC600"/>
<path d="M124.043 6.26868L119.792 9.79065L121.043 15.5146L116.912 12.0566L112.515 15.3307L114.213 9.67065L110.247 5.9707L115.428 5.93066L117.374 0.369751L118.878 6.00574L124.043 6.26868Z" fill="#C1C8CE"/>
</svg>
